<svg xmlns="http://www.w3.org/2000/svg" viewBox="0 0 512 512">
  <path fill="#02aab0" d="M0 0l128 512h252L512 0H0zm495.5 15l-37.8 136.7c-14.4 5.7-57.6 23.3-98.7 23.3-49 0-76.6-16.6-103-25-26.4-8.4-52-25-103-25-44.8 0-89.3 19.3-100.6 24l-36-134h479.1z"/>
  <path fill="#fff" d="M157.9 283.8c-5.2 4.8-11.2 7.2-18 7.2-4.5 0-8.7-.8-12.7-2.5s-7.4-4.1-10.4-7.2c-3-3.1-5.3-6.8-7.1-11.1-1.7-4.3-2.6-9.1-2.6-14.3 0-4.7.9-9.1 2.6-13.2 1.7-4.2 4.1-7.8 7.2-10.8 3-3.1 6.6-5.5 10.8-7.3 4.2-1.8 8.6-2.7 13.4-2.7 6.3 0 11.9 1.3 16.6 4 4.7 2.7 8.3 6.3 10.7 10.9l-11.7 8.8c-1.5-3.1-3.8-5.5-6.7-7.2-2.9-1.7-6.1-2.5-9.5-2.5-2.6 0-5 .5-7.2 1.6-2.1 1.1-4 2.5-5.5 4.4-1.5 1.9-2.7 4.1-3.6 6.6-.8 2.5-1.2 5.2-1.2 8.1 0 2.9.4 5.7 1.3 8.2.9 2.5 2.1 4.7 3.7 6.5 1.6 1.8 3.5 3.2 5.7 4.3 2.2 1 4.7 1.5 7.3 1.5 6.1 0 11.7-2.8 16.6-8.5v-2.1h-13.2v-11.4h26.3v35.6h-13.1v-6.9zm22-63.3h15.4v52.1c0 3.8 1.6 5.8 4.9 5.8.8 0 1.6-.1 2.5-.3.9-.2 1.8-.6 2.5-1l2 11.5c-1.9.9-4.1 1.6-6.6 2.1s-4.8.8-7 .8c-4.4 0-7.8-1.2-10.2-3.5-2.4-2.3-3.6-5.6-3.6-10v-57.5zm52.2 71c-4.3 0-8.5-.7-12.7-2.1-4.2-1.4-7.7-3.4-10.6-6l5.5-9.4c3.1 2.1 6.1 3.7 9 4.9 2.9 1.2 5.7 1.7 8.4 1.7 2 0 3.5-.4 4.6-1.1 1.1-.7 1.6-1.7 1.6-3.1 0-1.3-.7-2.4-2.1-3.2-1.4-.8-3.8-1.6-7.2-2.5-3.4-1-6.3-1.9-8.6-2.8-2.3-.9-4.2-1.9-5.7-3s-2.5-2.3-3.2-3.7c-.6-1.4-1-3.1-1-5 0-2.6.5-4.9 1.5-7 1-2.1 2.4-3.9 4.2-5.4 1.8-1.5 3.9-2.6 6.4-3.5 2.5-.8 5.1-1.2 8-1.2 3.8 0 7.3.5 10.6 1.5s6.5 2.9 9.6 5.6l-6 9.2c-2.9-2-5.4-3.4-7.7-4.3-2.2-.9-4.4-1.3-6.5-1.3-1.7 0-3.1.3-4.2 1-1.2.7-1.7 1.7-1.7 3.2 0 1.4.6 2.5 1.9 3.2 1.2.7 3.6 1.5 7 2.3 3.6 1 6.6 1.9 9.1 2.9s4.5 2 6 3.2c1.5 1.2 2.7 2.5 3.4 4.1.7 1.5 1.1 3.4 1.1 5.5 0 5-1.9 9-5.6 11.9-3.7 2.9-8.8 4.4-15.1 4.4zm42.3 0c-2.5 0-4.8-.4-7-1.2-2.1-.8-4-1.9-5.5-3.4-1.5-1.4-2.8-3.1-3.6-5.1-.9-2-1.3-4.1-1.3-6.4 0-2.5.5-4.8 1.6-6.8s2.5-3.8 4.5-5.3c1.9-1.5 4.2-2.6 6.8-3.5 2.6-.8 5.5-1.2 8.7-1.2 2.1 0 4.2.2 6.1.5 2 .4 3.7.9 5.2 1.6v-2.3c0-5.8-3.4-8.7-10.1-8.7-2.8 0-5.4.5-7.9 1.4-2.5.9-5.1 2.3-7.9 4.2l-4.5-9.6c3.3-2.2 6.8-3.8 10.4-4.9 3.6-1.1 7.4-1.6 11.4-1.6 7.6 0 13.5 1.8 17.7 5.4 4.2 3.6 6.2 8.8 6.2 15.7v13c0 1.5.2 2.6.7 3.2.5.6 1.3 1 2.5 1.1v13c-1.3.3-2.6.5-3.6.6-1.1.1-2.1.1-3 .1-2.9 0-5.1-.6-6.5-1.7-1.5-1.1-2.4-2.7-2.8-4.8l-.3-2.3c-2.2 2.9-4.9 5.1-8 6.6-3 1.7-6.3 2.4-9.8 2.4zm4.5-11c1.7 0 3.3-.3 4.8-.9 1.6-.6 2.9-1.3 3.9-2.3 1.5-1.2 2.2-2.4 2.2-3.6v-4.8c-1.3-.5-2.8-.9-4.4-1.2-1.6-.3-3-.4-4.4-.4-2.8 0-5.1.6-7 1.9-1.8 1.3-2.7 2.9-2.7 5 0 1.9.7 3.4 2.1 4.6 1.6 1.1 3.4 1.7 5.5 1.7zm57.4 11c-4.3 0-8.5-.7-12.7-2.1-4.2-1.4-7.7-3.4-10.6-6l5.5-9.4c3.1 2.1 6.1 3.7 9 4.9 2.9 1.2 5.7 1.7 8.4 1.7 2 0 3.5-.4 4.6-1.1 1.1-.7 1.6-1.7 1.6-3.1 0-1.3-.7-2.4-2.1-3.2-1.4-.8-3.8-1.6-7.2-2.5-3.4-1-6.3-1.9-8.6-2.8-2.3-.9-4.2-1.9-5.7-3s-2.5-2.3-3.2-3.7c-.6-1.4-1-3.1-1-5 0-2.6.5-4.9 1.5-7 1-2.1 2.4-3.9 4.2-5.4 1.8-1.5 3.9-2.6 6.4-3.5 2.5-.8 5.1-1.2 8-1.2 3.8 0 7.3.5 10.6 1.5s6.5 2.9 9.6 5.6l-6 9.2c-2.9-2-5.4-3.4-7.7-4.3-2.2-.9-4.4-1.3-6.5-1.3-1.7 0-3.1.3-4.2 1-1.2.7-1.7 1.7-1.7 3.2 0 1.4.6 2.5 1.9 3.2 1.2.7 3.6 1.5 7 2.3 3.6 1 6.6 1.9 9.1 2.9s4.5 2 6 3.2c1.5 1.2 2.7 2.5 3.4 4.1.7 1.5 1.1 3.4 1.1 5.5 0 5-1.9 9-5.6 11.9-3.8 2.9-8.8 4.4-15.1 4.4zm47.9 0c-4.3 0-8.5-.7-12.7-2.1-4.2-1.4-7.7-3.4-10.6-6l5.5-9.4c3.1 2.1 6.1 3.7 9 4.9 2.9 1.2 5.7 1.7 8.4 1.7 2 0 3.5-.4 4.6-1.1 1.1-.7 1.6-1.7 1.6-3.1 0-1.3-.7-2.4-2.1-3.2-1.4-.8-3.8-1.6-7.2-2.5-3.4-1-6.3-1.9-8.6-2.8-2.3-.9-4.2-1.9-5.7-3s-2.5-2.3-3.2-3.7c-.6-1.4-1-3.1-1-5 0-2.6.5-4.9 1.5-7 1-2.1 2.4-3.9 4.2-5.4 1.8-1.5 3.9-2.6 6.4-3.5 2.5-.8 5.1-1.2 8-1.2 3.8 0 7.3.5 10.6 1.5s6.5 2.9 9.6 5.6l-6 9.2c-2.9-2-5.4-3.4-7.7-4.3-2.2-.9-4.4-1.3-6.5-1.3-1.7 0-3.1.3-4.2 1-1.2.7-1.7 1.7-1.7 3.2 0 1.4.6 2.5 1.9 3.2 1.2.7 3.6 1.5 7 2.3 3.6 1 6.6 1.9 9.1 2.9s4.5 2 6 3.2c1.5 1.2 2.7 2.5 3.4 4.1.7 1.5 1.1 3.4 1.1 5.5 0 5-1.9 9-5.6 11.9-3.8 2.9-8.8 4.4-15.1 4.4z"/>
</svg>
